HIERARCHY
ROOT Hips
{
	OFFSET -0.001795 -0.223333 0.028219
	CHANNELS 6 Xposition Yposition Zposition Zrotation Yrotation Xrotation 
	JOINT LeftUpLeg
	{
		OFFSET 0.069520 -0.091406 -0.006815
		CHANNELS 3 Zrotation Yrotation Xrotation
		JOINT LeftLeg
		{
			OFFSET 0.034277 -0.375199 -0.004496
			CHANNELS 3 Zrotation Yrotation Xrotation
			JOINT LeftFoot
			{
				OFFSET -0.013596 -0.397961 -0.043693
				CHANNELS 3 Zrotation Yrotation Xrotation
				JOINT LeftToe
				{
					OFFSET 0.026358 -0.055791 0.119288
					CHANNELS 3 Zrotation Yrotation Xrotation
					End Site
					{
						OFFSET 0.000000 0.000000 0.000000
					}
				}
			}
		}
	}
	JOINT RightUpLeg
	{
		OFFSET -0.067670 -0.090522 -0.004320
		CHANNELS 3 Zrotation Yrotation Xrotation
		JOINT RightLeg
		{
			OFFSET -0.038290 -0.382569 -0.008850
			CHANNELS 3 Zrotation Yrotation Xrotation
			JOINT RightFoot
			{
				OFFSET 0.015774 -0.398415 -0.042312
				CHANNELS 3 Zrotation Yrotation Xrotation
				JOINT RightToe
				{
					OFFSET -0.025372 -0.048144 0.123348
					CHANNELS 3 Zrotation Yrotation Xrotation
					End Site
					{
						OFFSET 0.000000 0.000000 0.000000
					}
				}
			}
		}
	}
	JOINT Spine
	{
		OFFSET -0.002533 0.108963 -0.026696
		CHANNELS 3 Zrotation Yrotation Xrotation
		JOINT Spine1
		{
			OFFSET 0.005487 0.135180 0.001092
			CHANNELS 3 Zrotation Yrotation Xrotation
			JOINT Spine2
			{
				OFFSET 0.001457 0.052922 0.025425
				CHANNELS 3 Zrotation Yrotation Xrotation
				JOINT Neck
				{
					OFFSET -0.002778 0.213870 -0.042857
					CHANNELS 3 Zrotation Yrotation Xrotation
					JOINT Head
					{
						OFFSET 0.005152 0.064970 0.051349
						CHANNELS 3 Zrotation Yrotation Xrotation
						End Site
						{
							OFFSET 0.000000 0.000000 0.000000
						}
					}
				}
				JOINT LeftShoulder
				{
					OFFSET 0.078845 0.121749 -0.034090
					CHANNELS 3 Zrotation Yrotation Xrotation
					JOINT LeftArm
					{
						OFFSET 0.090977 0.030469 -0.008868
						CHANNELS 3 Zrotation Yrotation Xrotation
						JOINT LeftForeArm
						{
							OFFSET 0.259612 -0.012772 -0.027456
							CHANNELS 3 Zrotation Yrotation Xrotation
							JOINT LeftHand
							{
								OFFSET 0.249234 0.008986 -0.001171
								CHANNELS 3 Zrotation Yrotation Xrotation
								End Site
								{
									OFFSET 0.000000 0.000000 0.000000
								}
							}
						}
					}
				}
				JOINT RightShoulder
				{
					OFFSET -0.081759 0.118833 -0.038615
					CHANNELS 3 Zrotation Yrotation Xrotation
					JOINT RightArm
					{
						OFFSET -0.096012 0.032551 -0.009143
						CHANNELS 3 Zrotation Yrotation Xrotation
						JOINT RightForeArm
						{
							OFFSET -0.253742 -0.013329 -0.021401
							CHANNELS 3 Zrotation Yrotation Xrotation
							JOINT RightHand
							{
								OFFSET -0.255298 0.007772 -0.005559
								CHANNELS 3 Zrotation Yrotation Xrotation
								End Site
								{
									OFFSET 0.000000 0.000000 0.000000
								}
							}
						}
					}
				}
			}
		}
	}
}
MOTION
Frames: 11
Frame Time: 0.05000000
5.778568 0.845847 39.533695 5.500416 6.123832 -2.997255 -4.586916 -1.599273 -11.529072 -10.354807 2.327406 26.159161 9.587505 12.996495 -34.792282 0.000000 0.000000 0.000000 -13.315020 -0.749100 -23.986841 7.498145 -5.870345 88.694116 -2.629925 -4.982126 -3.917809 0.000000 0.000000 0.000000 -6.783420 -0.021985 8.351421 2.077667 0.007091 -21.078973 -1.772464 -4.815147 35.004600 2.084215 0.826045 -36.951724 0.000000 0.000000 0.000000 17.105600 8.278390 -1.543570 -85.065790 -10.544947 -1.283957 -17.608490 -30.488427 6.810187 0.000000 0.000000 0.000000 -22.446866 -1.976657 1.236111 89.413392 12.250982 -2.174943 15.058459 27.365268 4.772481 0.000000 0.000000 0.000000 
6.086713 0.858546 41.131519 3.799369 7.999084 -2.783706 -3.432651 -0.231870 -1.897927 -8.803145 1.421159 16.592190 9.642821 9.472244 -36.754957 0.000000 0.000000 0.000000 -12.568601 -1.059788 -34.907826 11.407929 -10.162221 80.751337 -4.619596 -8.995728 -8.111772 0.000000 0.000000 0.000000 -4.478126 -0.138151 7.853093 2.257711 -0.007643 -21.430388 -3.259648 -8.274177 35.423201 1.595263 0.604880 -36.314148 0.000000 0.000000 0.000000 18.143237 7.001233 -1.736691 -84.787264 -16.539464 5.629794 -13.134476 -37.458124 7.085312 0.000000 0.000000 0.000000 -22.103346 -3.919925 1.461762 88.043021 7.612809 -8.156125 18.591718 25.538713 5.156490 0.000000 0.000000 0.000000 
6.329738 0.860716 42.735416 2.741248 10.561028 -0.052390 -2.651848 0.508583 4.420109 -6.176121 0.661713 9.714527 9.695246 4.984638 -38.454777 0.000000 0.000000 0.000000 -12.670701 -1.653847 -43.887516 14.553114 -11.339122 65.271988 -5.532539 -11.491272 -10.137010 0.000000 0.000000 0.000000 -3.299872 -0.063950 3.857880 2.315271 0.009901 -21.386928 -4.886853 -12.252336 36.196755 1.249592 0.334802 -36.005790 0.000000 0.000000 0.000000 19.105742 6.930372 -2.205620 -85.041139 -21.342759 12.083362 -5.713057 -42.160668 5.324197 0.000000 0.000000 0.000000 -21.997919 -6.258069 1.567292 86.544334 2.068126 -14.284259 20.172586 23.826702 5.006324 0.000000 0.000000 0.000000 
6.511686 0.848832 44.377041 2.563345 11.971528 1.622673 -2.233342 1.183510 12.715543 -4.594719 0.379637 1.314273 9.395892 0.491629 -39.197071 0.000000 0.000000 0.000000 -12.583357 -1.931878 -47.322366 14.381604 -7.615267 44.416471 -6.214888 -13.594635 -15.375154 0.000000 0.000000 0.000000 -3.583751 0.039410 0.834121 2.828002 -0.117766 -21.193555 -6.296828 -15.709566 36.703992 0.971452 0.026320 -35.702674 0.000000 0.000000 0.000000 20.730867 6.505556 -2.638140 -85.861352 -23.272324 16.537389 1.402039 -45.060604 2.872729 0.000000 0.000000 0.000000 -22.667342 -7.017463 2.087181 85.371814 -2.218328 -19.330067 22.107846 22.619481 4.997968 0.000000 0.000000 0.000000 
6.650910 0.828923 46.094349 2.765156 13.505514 2.584151 1.182680 0.860889 20.372950 -6.000712 0.378099 -3.470595 8.992372 -4.417300 -40.270643 0.000000 0.000000 0.000000 -13.806663 -2.542580 -46.509429 13.909695 -4.089559 21.152366 -6.799675 -17.005978 -18.244427 0.000000 0.000000 0.000000 -3.578226 0.075466 0.013799 2.948504 -0.131751 -21.266336 -7.259925 -17.840119 36.559213 1.075811 -0.173089 -36.184547 0.000000 0.000000 0.000000 20.488337 5.299490 -2.710822 -85.807202 -26.530740 20.508140 7.316389 -45.074803 0.526586 0.000000 0.000000 0.000000 -22.219704 -7.851542 2.147409 85.220758 -5.181430 -22.449767 20.890191 21.569142 4.445332 0.000000 0.000000 0.000000 
6.763370 0.805360 47.922142 3.025602 15.491749 5.195166 4.947021 -0.391079 23.523169 -7.081824 0.389597 -2.938833 8.795303 -7.566053 -41.375809 0.000000 0.000000 0.000000 -13.515053 -2.798619 -49.501720 10.723228 -2.485246 14.703576 -7.127992 -19.785148 -17.646995 0.000000 0.000000 0.000000 -3.196665 0.196430 -3.349952 2.895898 -0.092575 -21.333397 -8.226695 -19.873696 37.175691 1.694851 -0.647455 -35.680782 0.000000 0.000000 0.000000 19.322827 5.907305 -2.999106 -86.065787 -26.598068 21.397552 8.637615 -47.565006 0.233279 0.000000 0.000000 0.000000 -22.214422 -8.755191 2.129426 84.522896 -8.420019 -25.150616 22.203277 21.742511 4.667078 0.000000 0.000000 0.000000 
6.818618 0.786893 49.907402 3.152451 16.099457 7.420334 5.956920 -0.927009 23.644652 -5.637944 0.457161 4.133927 9.009339 -6.841535 -42.257352 0.000000 0.000000 0.000000 -14.000209 -3.569410 -54.499915 12.235137 -4.278323 26.330329 -7.953515 -22.046903 -12.738390 0.000000 0.000000 0.000000 -3.089794 0.312820 -6.814702 3.029565 -0.131380 -20.935050 -8.568318 -20.780897 37.484995 2.013853 -0.777356 -36.174964 0.000000 0.000000 0.000000 19.685007 6.351871 -3.185260 -87.790587 -24.278152 20.644022 8.187312 -49.496501 0.543476 0.000000 0.000000 0.000000 -21.620825 -9.470455 1.957883 84.027952 -9.566717 -25.876780 21.732165 19.701039 4.063364 0.000000 0.000000 0.000000 
6.777315 0.781026 51.993698 2.818351 14.722524 7.959343 7.999000 -1.474825 23.575079 -6.961758 0.853100 14.349435 6.795005 -8.586366 -36.003295 0.000000 0.000000 0.000000 -12.562309 -3.013319 -58.448775 12.744498 -6.413145 40.298612 -7.393567 -18.743862 -2.361396 0.000000 0.000000 0.000000 -2.644252 0.359195 -8.715408 3.074027 -0.166350 -20.565220 -8.383896 -20.569194 37.926974 1.323124 -0.508729 -36.488946 0.000000 0.000000 0.000000 18.434105 7.127227 -3.421200 -87.727095 -19.514402 16.323113 0.829797 -51.238892 4.189510 0.000000 0.000000 0.000000 -21.151516 -8.753539 2.056262 84.170599 -7.778989 -24.784871 21.378112 18.830245 3.821566 0.000000 0.000000 0.000000 
6.648952 0.788632 53.967358 2.222698 12.017488 4.147005 10.140084 -1.454218 22.696115 -7.069507 1.068126 28.872739 3.127598 -7.101750 -21.835010 0.000000 0.000000 0.000000 -10.379642 -1.277816 -54.842383 13.548940 -8.027380 49.836406 -7.794233 -19.131540 -2.039826 0.000000 0.000000 0.000000 -1.896916 0.195506 -4.448009 3.277791 -0.241995 -20.909476 -7.385017 -18.888990 37.405598 0.704269 -0.168021 -36.870988 0.000000 0.000000 0.000000 17.391907 7.632619 -3.499910 -88.661997 -15.039963 11.940518 -7.489923 -47.343093 7.248432 0.000000 0.000000 0.000000 -21.244927 -6.187721 2.542189 86.028206 -4.474240 -23.166433 21.044779 20.415850 4.198875 0.000000 0.000000 0.000000 
6.479159 0.801066 55.654121 1.758282 9.310034 1.812216 10.279066 -0.721119 13.126085 -7.524092 1.225038 51.848080 3.141688 0.800912 -12.373194 0.000000 0.000000 0.000000 -8.027529 0.462964 -47.070369 13.856903 -8.089618 51.413078 -8.367581 -20.825272 -10.327130 0.000000 0.000000 0.000000 -1.547132 0.076603 -1.492528 3.160819 -0.233031 -21.085004 -5.871455 -16.473559 36.946491 1.922642 -0.567350 -36.578842 0.000000 0.000000 0.000000 17.408459 6.943601 -3.161229 -89.020518 -12.317496 8.473599 -12.863689 -39.775798 7.591074 0.000000 0.000000 0.000000 -21.260595 -3.933506 2.746203 87.156159 0.756757 -18.751271 20.033951 22.421476 4.563188 0.000000 0.000000 0.000000 
6.329988 0.817322 57.114117 1.525573 6.156198 -1.844069 9.798863 -0.109176 1.745472 -9.936839 3.475566 70.982376 5.450782 9.204412 -8.271144 0.000000 0.000000 0.000000 -4.600975 1.762276 -35.178354 11.852675 -5.855927 48.633169 -7.880827 -18.646787 -21.717938 0.000000 0.000000 0.000000 -1.882130 -0.120416 3.881946 3.004628 -0.214396 -21.495865 -3.694122 -12.699030 36.289768 3.417412 -0.837844 -37.039027 0.000000 0.000000 0.000000 17.270239 7.011509 -2.768104 -89.134010 -10.449940 4.780809 -16.925291 -32.910207 7.235856 0.000000 0.000000 0.000000 -20.993157 -2.411243 2.588425 87.715619 5.922443 -13.280412 18.467841 27.037329 5.361790 0.000000 0.000000 0.000000 
